<svg width="1024" height="1024" viewBox="0 0 1024 1024" fill="none" xmlns="http://www.w3.org/2000/svg">
<path d="M197 158C200.433 161.389 203.514 164.785 206.437 168.625C206.859 169.177 207.28 169.729 207.714 170.298C212.063 176.026 216.296 181.839 220.547 187.639C225.146 193.893 229.876 200.033 234.665 206.141C239.804 212.708 244.802 219.375 249.783 226.062C253.661 231.256 257.613 236.351 261.777 241.32C263 243 263 243 263 245C264.545 243.801 264.545 243.801 266.121 242.578C298.051 217.907 331.117 198.276 369 184C369.711 183.727 370.421 183.454 371.154 183.173C379.492 179.977 387.976 177.515 396.59 175.199C399.386 174.447 402.168 173.664 404.941 172.832C411.345 170.919 417.325 169.46 424 169C420.795 177.545 416.784 188.128 408.707 192.977C405.551 193.989 402.421 194.803 399.179 195.487C395.084 196.451 391.149 197.907 387.187 199.312C386.334 199.612 385.48 199.911 384.6 200.219C375.834 203.332 367.415 207.047 359 211C357.964 211.483 356.927 211.966 355.859 212.463C341.849 219.008 328.044 225.667 315 234C314.275 234.462 313.551 234.925 312.805 235.401C302.383 242.104 292.372 249.283 282.54 256.821C280.703 258.227 278.854 259.616 277 261C277.609 264.142 278.621 266.167 280.519 268.73C281.041 269.442 281.562 270.153 282.099 270.886C282.664 271.645 283.23 272.405 283.812 273.188C285.01 274.821 286.206 276.455 287.402 278.09C288.008 278.915 288.614 279.74 289.238 280.589C291.818 284.119 294.354 287.678 296.875 291.25C297.599 292.275 297.599 292.275 298.337 293.321C303.108 300.108 307.764 306.973 312.426 313.836C316.299 319.529 320.21 325.192 324.187 330.812C324.663 331.484 325.138 332.156 325.628 332.848C328.202 336.479 330.787 340.102 333.375 343.723C333.929 344.501 334.483 345.279 335.054 346.081C336.118 347.575 337.186 349.068 338.257 350.558C338.733 351.227 339.209 351.896 339.699 352.586C340.12 353.174 340.541 353.763 340.975 354.369C342 356 342 356 343 359C344.305 359.18 344.305 359.18 345.637 359.363C348.943 359.989 351.703 360.924 354.812 362.195C355.953 362.655 357.093 363.115 358.268 363.589C360.817 364.633 363.359 365.693 365.9 366.757C372.751 369.604 379.574 372.244 386.665 374.44C414.372 383.032 414.372 383.032 419.06 390.111C421.666 397.284 421.863 404.47 421 412C415.026 410.816 409.438 409.228 403.766 407.023C403.014 406.737 402.263 406.451 401.489 406.156C399.074 405.235 396.662 404.305 394.25 403.375C392.567 402.731 390.884 402.088 389.2 401.446C385.155 399.901 381.112 398.349 377.071 396.795C373.559 395.447 370.045 394.106 366.529 392.768C364.974 392.175 363.421 391.578 361.87 390.976C357.286 389.207 352.679 387.53 348.037 385.922C345.12 384.907 342.211 383.869 339.303 382.83C337.872 382.326 336.437 381.831 334.999 381.348C325.881 378.281 320.158 375.432 315 367C314.109 365.669 313.211 364.343 312.308 363.02C308.932 358.063 305.623 353.063 302.312 348.062C301.079 346.205 299.845 344.347 298.611 342.49C296.039 338.619 293.469 334.747 290.9 330.874C285.247 322.355 279.572 313.851 273.898 305.346C271.641 301.962 269.384 298.577 267.128 295.192C266.054 293.581 264.979 291.969 263.905 290.358C261.053 286.083 258.206 281.806 255.362 277.526C249.221 268.29 243.059 259.079 236.687 250C235.42 248.188 234.153 246.375 232.887 244.562C232.304 243.73 231.721 242.897 231.12 242.039C228.825 238.749 226.539 235.452 224.257 232.152C223.845 231.557 223.434 230.962 223.009 230.349C222.006 228.9 221.003 227.45 220 226C219.673 249.8 219.426 273.6 219.275 297.402C219.202 308.454 219.104 319.505 218.944 330.557C218.804 340.192 218.714 349.827 218.683 359.463C218.664 364.564 218.622 369.661 218.52 374.761C218.424 379.568 218.395 384.37 218.416 389.178C218.413 390.936 218.385 392.694 218.331 394.452C217.875 403.624 217.875 403.624 221.38 411.796C225.862 416.243 231.097 419.305 236.521 422.472C238.777 423.81 239.754 424.667 241 427C241.928 433.08 241.75 439.055 241.562 445.188C241.531 446.991 241.503 448.794 241.476 450.598C241.378 456.068 241.203 461.533 241 467C240.97 467.805 240.941 468.61 240.91 469.439C240.101 490.658 238.348 511.817 236.207 532.94C236.001 534.988 235.801 537.038 235.603 539.087C231.762 578.446 224.242 617.213 216.004 655.859C215.816 656.745 215.627 657.63 215.434 658.542C215.259 659.353 215.084 660.164 214.904 660.999C214.753 661.703 214.602 662.408 214.446 663.133C214 665 214 665 213 668C213.594 668.275 214.189 668.551 214.801 668.834C216.895 669.944 218.422 671.078 220.18 672.652C220.771 673.176 221.362 673.699 221.971 674.238C222.6 674.799 223.228 675.36 223.875 675.938C231.049 682.24 238.406 688.213 246 694C247.132 694.863 247.132 694.863 248.286 695.743C291.162 728.332 336.908 756.915 385.273 780.652C390.45 783.199 395.506 785.938 400.539 788.758C402.727 789.862 404.605 790.539 407 791C406.611 789.443 406.221 787.886 405.832 786.329C405.479 784.916 405.126 783.503 404.773 782.089C403.777 778.097 402.774 774.106 401.762 770.117C397.829 754.591 394.202 739.11 391.711 723.281C391.244 720.346 390.679 717.449 390.059 714.542C388.827 708.414 388.079 702.251 387.344 696.047C387.196 694.829 387.048 693.611 386.896 692.357C386.427 688.488 385.963 684.619 385.5 680.75C385.036 676.895 384.571 673.041 384.104 669.186C383.815 666.798 383.528 664.409 383.242 662.02C382.401 655.036 381.457 648.073 380.427 641.114C380.039 638.283 379.742 635.465 379.508 632.617C379.442 631.823 379.376 631.029 379.309 630.211C379.183 628.615 379.069 627.019 378.965 625.422C378.631 621.607 378.447 619.571 376.039 616.492C371.881 613.449 367.036 613.339 362 614C356.692 616.348 354.977 619.381 352.814 624.478C351.478 628.617 351.562 632.511 351.715 636.82C351.728 637.723 351.74 638.626 351.753 639.556C351.795 642.413 351.864 645.269 351.937 648.125C352.006 650.988 352.068 653.851 352.111 656.715C352.138 658.488 352.179 660.262 352.237 662.034C352.344 668.598 351.317 673.342 346.875 678.438C342.848 680.626 339.485 680.917 335 680C330.797 677.785 328.017 674.247 326 670C324.916 665.823 324.864 661.742 324.886 657.456C324.886 656.714 324.886 655.972 324.886 655.207C324.887 652.767 324.894 650.327 324.902 647.887C324.904 646.19 324.906 644.493 324.907 642.796C324.91 638.34 324.92 633.883 324.931 629.426C324.942 624.874 324.946 620.323 324.951 615.771C324.962 606.848 324.979 597.924 325 589C324.243 588.59 323.486 588.18 322.706 587.757C321.714 587.218 320.722 586.679 319.7 586.124C318.717 585.59 317.733 585.056 316.719 584.506C311.589 581.665 306.818 578.335 302 575C301.449 574.624 300.899 574.247 300.331 573.859C293.61 569.254 287.109 564.437 280.875 559.188C280.362 558.763 279.849 558.339 279.321 557.901C278.213 556.948 277.133 555.964 276.074 554.957C274.923 553.871 273.757 552.797 272.54 551.784C267.039 547.175 262.072 542.688 261.037 535.295C260.68 530.075 260.947 524.904 261.25 519.688C261.31 517.868 261.365 516.048 261.414 514.229C261.545 509.814 261.751 505.409 262 501C268.502 507.451 273.979 514.336 279 522C296.038 547.957 319.832 561.613 348 573C349.049 573.426 350.098 573.853 351.179 574.292C366.5 580.478 381.64 585.482 397.758 589.059C398.556 589.236 399.354 589.413 400.176 589.595C401.079 589.796 401.079 589.796 402 590C402.016 590.601 402.032 591.202 402.049 591.821C402.84 620.721 403.679 649.387 408 678C408.219 679.48 408.438 680.96 408.657 682.44C410.278 693.322 412.074 704.169 414 715C414.126 715.711 414.253 716.422 414.383 717.155C417.918 736.918 422.446 756.4 427.312 775.875C427.579 776.943 427.846 778.011 428.12 779.111C428.883 782.156 429.653 785.2 430.426 788.242C430.656 789.155 430.886 790.068 431.123 791.009C432.182 795.139 433.308 799.074 435 803C435.469 804.721 435.904 806.451 436.312 808.188C438.334 816.515 440.681 824.751 443 833C439.407 832.404 436.472 831.435 433.203 829.84C432.261 829.384 431.319 828.928 430.348 828.458C428.815 827.706 428.815 827.706 427.25 826.938C426.17 826.412 425.089 825.887 423.976 825.346C421.6 824.191 419.226 823.034 416.852 821.875C412.802 819.9 408.741 817.948 404.68 815.996C389.979 808.926 375.312 801.835 361 794C359.993 793.45 358.987 792.9 357.95 792.334C328.934 776.446 300.267 759.763 273 741C272.254 740.486 271.507 739.973 270.738 739.444C253.428 727.496 236.401 715.173 220 702C219.083 701.267 218.167 700.533 217.223 699.777C211.749 695.348 206.39 690.79 201.062 686.188C200.423 685.636 199.784 685.084 199.125 684.516C197.929 683.478 196.74 682.431 195.559 681.376C194.259 680.229 192.914 679.133 191.559 678.051C189.286 675.061 189.545 672.558 190 669C190.619 665.018 191.39 661.075 192.187 657.125C192.413 655.981 192.639 654.837 192.871 653.658C193.574 650.104 194.286 646.552 195 643C195.423 640.883 195.846 638.766 196.269 636.648C196.886 633.566 197.503 630.483 198.122 627.401C200.484 615.614 202.792 603.818 205 592C205.174 591.087 205.348 590.173 205.527 589.232C208.679 572.492 210.508 555.615 212.338 538.69C212.441 537.744 212.544 536.799 212.65 535.824C212.845 534.028 213.038 532.232 213.226 530.435C213.314 529.631 213.401 528.827 213.491 527.999C213.565 527.296 213.64 526.594 213.717 525.87C214 524 214 524 215 521C215.295 518.149 215.544 515.311 215.754 512.453C215.82 511.586 215.886 510.719 215.954 509.825C216.691 499.892 217.287 489.951 217.832 480.006C217.995 477.097 218.17 474.188 218.347 471.279C218.608 466.834 218.79 462.391 218.915 457.941C218.971 456.289 219.05 454.638 219.152 452.989C219.829 444.25 219.829 444.25 216.801 436.286C212.839 432.022 207.984 428.687 202.933 425.832C199.791 423.868 197.433 422.346 196.267 418.723C195.989 415.886 195.972 413.145 196.038 410.294C196.028 408.675 196.028 408.675 196.017 407.024C196.004 403.407 196.048 399.793 196.092 396.176C196.094 393.584 196.093 390.992 196.088 388.4C196.084 382.82 196.109 377.24 196.154 371.659C196.219 363.591 196.24 355.523 196.25 347.454C196.268 334.363 196.321 321.272 196.396 308.182C196.47 295.466 196.526 282.751 196.56 270.036C196.563 269.252 196.565 268.468 196.567 267.66C196.577 263.727 196.587 259.794 196.597 255.861C196.68 223.24 196.821 190.62 197 158Z" fill="#757472"/>
<path d="M527 208C528.922 208.153 530.844 208.308 532.767 208.464C533.837 208.55 534.907 208.636 536.01 208.725C544.601 209.516 553.397 211.13 560 217C565.482 224.973 564.531 233.878 564.491 243.164C564.385 254.681 564.385 254.681 569 265C573.861 268.704 579.127 268.679 585 268C586.659 267.545 588.306 267.045 589.937 266.5C598.163 263.81 605.751 264.09 613.652 267.684C624.364 273.69 629.417 283.303 633.141 294.652C635.875 305.303 636.357 315.563 636.312 326.5C636.312 327.313 636.312 328.126 636.312 328.964C636.296 340.618 635.585 351.981 634.079 363.548C633.119 371.116 632.697 378.559 632.687 386.188C632.682 387.162 632.677 388.136 632.672 389.14C632.757 397.759 634.25 405.654 639 413C642.91 416.714 646.778 419.27 652.25 419.438C657.371 419.294 661.407 417.693 665 414C668.713 408.426 669.682 403.423 669.562 396.812C669.554 395.952 669.546 395.091 669.538 394.204C669.236 384.125 666.672 374.668 664 365C661.7 356.406 659.678 347.847 658.25 339.062C658.122 338.293 657.994 337.524 657.863 336.732C657.049 331.438 656.811 326.358 657 321C657.33 320.67 657.66 320.34 658 320C658.021 318.042 657.99 316.083 657.937 314.125C657.874 299.496 661.266 285.721 671.73 275.031C676.39 270.861 680.654 268.619 687 268C686.101 273.362 684.142 278.253 682.254 283.332C679.8 290.509 678.657 296.839 678.687 304.438C678.671 305.232 678.655 306.027 678.639 306.846C678.634 312.741 679.843 317.537 682 323C682.437 324.138 682.874 325.276 683.324 326.449C686.485 333.956 690.065 340.875 694.266 347.844C698.282 355.153 698.804 362.6 699.592 370.77C700.531 378.776 702.694 384.138 708.852 389.469C715.124 392.519 722.865 392.073 729.543 390.34C731.61 389.416 733.227 388.404 735 387C735.539 386.584 736.078 386.167 736.633 385.738C743.832 378.847 745.523 366.52 747.437 357.125C749.268 348.791 753.34 341.464 760 336C764.172 333.682 769.243 332.893 774 333C774.99 333.66 775.98 334.32 777 335C777.704 339.367 777.47 343.833 777.437 348.25C777.436 348.907 777.435 349.564 777.434 350.241C777.385 365.347 775.401 380.107 773 395C772.67 395 772.34 395 772 395C771.897 394.072 771.794 393.144 771.687 392.188C770.936 388.705 770.429 388.336 768 386C767.526 384.804 767.051 383.607 766.562 382.375C765.403 378.884 765.403 378.884 762.812 378.062C762.214 378.042 761.616 378.021 761 378C760.67 379.32 760.34 380.64 760 382C759.67 379.36 759.34 376.72 759 374C756.065 383.89 753.548 393.821 751.25 403.875C750.931 405.257 750.612 406.638 750.293 408.02C749.525 411.345 748.761 414.672 748 418C746.929 418.133 745.858 418.266 744.754 418.402C743.357 418.581 741.96 418.759 740.562 418.938C739.855 419.025 739.148 419.112 738.42 419.201C734.912 419.382 734.912 419.382 732 421C729.941 421.248 727.882 421.383 725.812 421.523C723.291 421.951 721.157 422.582 718.75 423.414C715.001 424.709 711.292 425.659 707.416 426.483C692.396 429.696 677.985 434.838 663.491 439.843C660.013 440.996 656.53 442.019 653 443C653 438.71 653 434.42 653 430C651.577 430.155 651.577 430.155 650.125 430.312C643.771 430.261 638.449 427.096 633.723 423.051C626.069 415.113 622.88 405.092 622.867 394.184C622.866 393.09 622.865 391.996 622.863 390.869C622.867 389.737 622.871 388.604 622.875 387.438C622.871 386.301 622.867 385.165 622.863 383.994C622.865 382.902 622.866 381.809 622.867 380.684C622.868 379.689 622.869 378.694 622.871 377.67C622.986 375.286 623.319 373.278 624 371C623.12 371.615 622.239 372.23 621.332 372.863C620.159 373.68 618.986 374.496 617.812 375.312C616.945 375.919 616.945 375.919 616.061 376.537C606.76 383 606.76 383 602 383C602.543 384.027 603.085 385.055 603.645 386.113C607.257 393.066 610.585 399.671 612.348 407.355C613.316 411.28 614.786 415.013 616.23 418.785C618.464 428.116 616.252 435.999 613.125 444.875C612.78 445.989 612.434 447.102 612.078 448.25C609.343 456.079 609.343 456.079 605.736 458.553C603.176 459.6 600.684 460.342 598 461C596.629 461.442 595.26 461.892 593.895 462.352C593.234 462.557 592.573 462.763 591.892 462.975C574.291 468.475 557.65 476.553 541.097 484.596C540.181 485.042 539.264 485.487 538.32 485.945C537.508 486.343 536.696 486.74 535.86 487.149C534 488 534 488 533 488C531.347 451.038 530.616 414.12 530.399 377.124C530.362 371.083 530.317 365.043 530.273 359.002C530.172 345.335 528.582 334.167 528.5 320.5C527.84 320.5 528.68 318 528 318C527.096 304.692 526.866 291.453 526.902 278.117C526.904 276.08 526.906 274.043 526.907 272.006C526.91 266.71 526.92 261.413 526.931 256.116C526.942 250.686 526.946 245.255 526.951 239.824C526.962 229.216 526.979 218.608 527 208Z" fill="#70706E"/>
<path d="M510 78C510.66 78 511.32 78 512 78C513.377 79.8494 514.675 81.7581 515.938 83.6875C520.781 90.9274 526.301 97.4285 532 104C532.867 105.055 533.733 106.111 534.598 107.168C537.753 110.888 541.261 113.886 545 117C545.753 117.641 546.506 118.281 547.281 118.941C558.414 128.176 570.937 134.936 584 141C584.845 141.395 585.689 141.791 586.56 142.198C610.18 153.095 635.133 160.418 659.914 168.164C710.238 183.905 710.238 183.905 722 206C726.468 214.115 732.208 220.483 741 224C753.795 227.059 765.047 224.206 776.219 217.773C789.923 209.035 799.485 196.656 808.938 183.688C809.469 182.959 810.001 182.231 810.548 181.481C814.097 176.517 817.146 171.391 820 166C820.66 166 821.32 166 822 166C822.114 201.279 822.203 236.559 822.255 271.838C822.262 276.004 822.268 280.169 822.275 284.335C822.276 285.164 822.277 285.994 822.279 286.848C822.3 300.274 822.34 313.699 822.386 327.125C822.433 340.902 822.46 354.679 822.47 368.456C822.477 376.957 822.499 385.457 822.54 393.957C822.566 399.787 822.574 405.617 822.568 411.447C822.564 414.81 822.572 418.173 822.596 421.536C822.621 425.186 822.615 428.834 822.601 432.484C822.616 433.542 822.63 434.601 822.645 435.691C822.58 442.18 821.593 447.165 817 452C812.457 454.679 808.154 454.622 803 454C796.724 451.345 793.727 445.999 791 440C784.034 419.013 785.255 398.524 788.5 377C790.032 366.788 791.493 356.729 791.5 346.375C791.509 345.136 791.509 345.136 791.518 343.871C791.37 336.776 790.076 329.693 785.688 324C780.237 319.944 774.621 319.166 768 320C758.377 322.425 750.017 328.355 744.625 336.688C740.463 344.369 738.52 352.774 736.505 361.212C732.884 376.286 732.884 376.286 727.875 381C723.648 382.47 719.388 383.042 715 382C711.464 379.343 710.174 377.654 709.031 373.355C708.838 371.968 708.662 370.579 708.5 369.188C706.344 354.779 701.539 342.401 695.086 329.375C688.456 315.767 685.857 299.286 690.693 284.591C693.938 276.023 698.749 268.467 704 261C700.608 257.34 700.608 257.34 696 256C694.886 255.835 693.773 255.67 692.625 255.5C685.229 255.611 677.281 260.275 671.719 264.895C655.581 282.271 657.196 308.035 658 330C658.914 343.576 662.839 356.71 666.379 369.785C668.729 378.649 670.361 386.933 670.375 396.125C670.4 396.967 670.424 397.809 670.449 398.676C670.477 404.603 669.345 409.055 666 414C662.09 417.714 658.222 420.27 652.75 420.438C647.474 420.299 643.94 418.433 640 415C629.646 403.463 631.32 387.501 632 373C632.401 368.757 632.947 364.538 633.5 360.312C634.804 349.979 635.356 339.753 635.422 329.348C635.432 327.774 635.449 326.201 635.473 324.627C635.714 306.891 633.3 287.055 620.707 273.465C613.772 267.513 606.859 265.718 597.934 265.766C595.033 265.997 592.688 266.579 589.938 267.5C583.662 269.582 577.27 270.448 571.125 267.5C567.31 264.759 565.344 261.457 564 257C563.404 250.954 563.483 244.904 563.509 238.836C563.619 227.316 563.619 227.316 559 217C550.407 210.236 537.294 209.716 527 208C527.33 244.3 527.66 280.6 528 318C528.66 318 528.32 326 529 326C529.893 337.612 531.169 341.169 531.23 352.812C531.247 355.92 531.269 359.028 531.293 362.136C531.326 366.563 531.358 370.989 531.389 375.416C531.65 412.642 532.033 449.818 534 487C534.748 486.628 535.495 486.257 536.265 485.874C549.576 479.282 562.88 472.813 576.688 467.312C577.682 466.916 578.676 466.519 579.701 466.11C584.14 464.377 588.577 462.778 593.145 461.418C594.355 461.051 594.355 461.051 595.589 460.677C598 460 598 460 600.485 459.497C604.018 458.66 606.284 458.094 608.328 454.97C609.391 452.382 610.195 449.822 610.938 447.125C611.488 445.336 612.039 443.547 612.59 441.758C612.833 440.921 613.076 440.085 613.326 439.223C614 437 614 437 615.16 434.129C618.806 424.888 613.974 414.974 610.8 406.25C609.975 403.929 609.22 401.592 608.469 399.246C607.386 395.97 606.117 393.083 604.313 390.125C602 386.319 602 386.319 602 383C602.928 382.649 603.856 382.299 604.813 381.938C609.346 380.013 613.345 377.321 617.449 374.621C619.597 373.256 621.719 372.114 624 371C623.976 372.223 623.976 372.223 623.952 373.472C623.901 376.558 623.863 379.644 623.835 382.731C623.813 384.7 623.775 386.668 623.736 388.637C623.638 401.609 625.292 412.864 634.477 422.559C639.883 427.43 645.888 429.274 653 430C653.33 433.96 653.66 437.92 654 442C655.494 441.494 655.494 441.494 657.019 440.978C660.808 439.696 664.6 438.421 668.392 437.148C670.016 436.602 671.639 436.054 673.261 435.504C688.185 430.451 703.189 425.924 718.594 422.578C720.993 422.097 720.993 422.097 723 421C724.392 420.821 725.789 420.68 727.188 420.562C730.183 420.266 732.588 419.822 735.5 418.938C739.773 417.793 743.616 417.854 748 418C748.085 416.862 748.17 415.724 748.258 414.551C749.019 407.73 750.708 401.098 752.329 394.442C752.877 392.178 753.41 389.91 753.941 387.643C754.291 386.192 754.641 384.743 754.992 383.293C755.149 382.62 755.305 381.947 755.466 381.254C756.385 377.552 757.453 374.862 760 372C760.33 373.98 760.66 375.96 761 378C762.65 378 764.3 378 766 378C767.943 383.7 767.943 383.7 768.438 386.312C768.623 386.869 769.809 386.426 770 387C770.99 387.33 770.98 388.66 772 389C772.022 390.313 772.022 390.313 772.044 391.652C772.106 394.996 772.181 398.339 772.262 401.683C772.295 403.112 772.323 404.541 772.346 405.97C772.533 417.214 773.907 427.954 776 439C774.807 439.277 773.615 439.553 772.386 439.839C767.851 440.891 763.317 441.944 758.782 442.998C756.84 443.449 754.898 443.9 752.956 444.35C742.494 446.778 732.034 449.216 721.582 451.688C720.314 451.985 720.314 451.985 719.021 452.289C712.497 453.837 706.064 455.617 699.656 457.594C696.313 458.614 692.958 459.583 689.594 460.531C649.891 471.83 610.377 485.424 573 503C571.521 503.69 571.521 503.69 570.012 504.395C559.115 509.493 548.283 514.678 537.75 520.5C537.03 520.897 536.31 521.294 535.568 521.703C531.747 523.86 528.429 526.247 525 529C524.34 529 523.68 529 523 529C523.026 529.917 523.052 530.835 523.079 531.78C523.671 554.954 522.658 577.844 520.688 600.938C520.602 601.937 520.602 601.937 520.515 602.958C520.005 608.944 519.486 614.93 518.96 620.916C517.544 637.064 516.377 653.227 515.309 669.401C515.111 672.379 514.903 675.356 514.684 678.333C513.205 698.463 512.726 718.603 512.594 738.783C512.576 741.498 512.545 744.213 512.508 746.928C512.179 772.908 515.571 797.29 522.756 822.281C524.919 830.27 527.139 840.039 524.246 848.1C523.25 849.688 523.25 849.688 521 852C520.103 852.928 520.103 852.928 519.188 853.875C515.832 855.601 513.727 855.569 510 855C505.866 852.424 502.894 849.512 501 845C500.741 842.657 500.741 842.657 500.734 840.07C500.731 839.118 500.727 838.166 500.723 837.184C500.732 836.175 500.741 835.165 500.75 834.125C500.754 833.08 500.758 832.035 500.762 830.958C500.821 825.606 501.067 820.47 502 815.188C505.117 796.286 502.794 776.61 501.049 757.655C500.843 755.412 500.644 753.167 500.445 750.923C500.223 748.417 499.991 745.913 499.737 743.41C497.513 721.48 497.686 699.546 497.743 677.529C497.75 674.334 497.753 671.139 497.755 667.945C497.775 644.046 497.938 620.19 499 596.312C501.426 540.245 500.261 484.182 498.125 428.125C498.081 426.979 498.038 425.833 497.993 424.652C497.095 401.22 496.087 377.797 494.806 354.383C493.968 339.052 493.409 323.722 492.938 308.375C492.782 303.424 492.625 298.474 492.465 293.523C492.427 292.336 492.388 291.148 492.349 289.925C492.132 283.376 491.862 276.835 491.508 270.293C490.734 255.852 490.36 241.392 489.938 226.938C489.915 226.184 489.893 225.431 489.871 224.654C486.498 109.067 486.498 109.067 510 78Z" fill="url(#paint0_linear_8_2)"/>
<path d="M761.144 501.047C763 502 763 502 764.012 503.891C764.235 504.669 764.458 505.448 764.687 506.25C765.034 507.402 765.034 507.402 765.387 508.578C771.308 531.961 765.237 562.617 753.125 583.063C751.544 585.615 749.918 588.121 748.238 590.609C736.973 607.52 735.312 624.692 738.934 644.663C741.065 654.445 744.545 663.922 747.674 673.421C761.079 714.207 761.079 714.207 754.035 731.145C749.782 738.768 744.132 742.289 736 745C727.322 745.729 720.968 744.671 713.75 739.813C708.726 734.675 706.516 729.381 706.393 722.202C706.415 720.988 706.415 720.988 706.437 719.75C706.445 718.887 706.454 718.023 706.462 717.134C706.731 708.185 708.854 699.901 711.329 691.341C719.981 662.115 719.981 662.115 715.875 632.875C713.445 629.105 711.457 627.135 707 626C700.452 625.388 694.534 625.064 689 629C688.292 629.503 687.585 630.005 686.855 630.523C673.717 640.851 671.668 658.001 668.785 673.48C668.465 675.187 668.465 675.187 668.139 676.929C667.724 679.168 667.319 681.408 666.925 683.651C664.696 695.856 661.287 708.342 651.125 716.313C645.482 720.174 640.164 722.785 633.5 724.375C626.048 726.277 620.186 730.504 616 737C600.913 764.517 605.453 801.084 613.797 829.942C614.779 833.305 615.786 836.659 616.826 840.004C621.582 855.519 625.461 872.364 617.676 887.59C612.035 896.487 604.999 900.534 595.125 903.578C584.626 905.662 576.351 904.313 567.105 899.121C558.58 893.298 553.026 885.166 551 875C548.886 854.373 556.788 833.928 563.147 814.625C565.582 807.13 567.79 799.563 570 792C570.328 790.88 570.328 790.88 570.663 789.737C574.031 778.178 576.785 766.52 579.384 754.766C579.971 752.132 580.572 749.501 581.18 746.871C582.233 742.317 583.265 737.758 584.285 733.196C584.788 730.945 585.296 728.694 585.805 726.444C595.257 684.478 601.436 641.668 603.766 598.706C603.994 596.074 604.429 593.577 605 591C606.032 590.792 607.065 590.585 608.129 590.371C619.008 588.108 629.545 585.113 640.148 581.805C646.729 579.755 653.356 577.879 659.999 576.042C664.418 574.803 668.713 573.425 672.992 571.768C675.118 570.955 677.259 570.202 679.41 569.457C708.416 559.279 729.057 542.834 745.277 516.645C755.518 500.924 755.518 500.924 761.144 501.047Z" fill="url(#paint1_linear_8_2)"/>
<path d="M474 229C477.23 258.377 477.23 258.377 477.709 271.099C477.826 274.129 478.011 277.074 478.473 280.073C479.125 284.927 479.397 289.756 479.648 294.645C479.705 295.721 479.763 296.798 479.821 297.907C480.011 301.542 480.194 305.177 480.375 308.813C480.439 310.083 480.503 311.354 480.569 312.663C481.86 338.557 482.771 364.463 483.625 390.375C483.656 391.323 483.688 392.271 483.72 393.248C484.368 412.892 484.981 432.537 485.516 452.185C485.559 453.76 485.602 455.335 485.647 456.911C486.076 472.274 486.109 487.631 486 503C482.047 502.36 478.729 501.141 475.074 499.516C473.902 498.999 472.73 498.483 471.522 497.951C470.899 497.675 470.276 497.398 469.634 497.113C458.191 492.039 446.673 487.176 435.062 482.5C411.55 473.016 388.212 463.132 364.923 453.112C363.528 452.512 362.133 451.912 360.738 451.312C359.743 450.884 359.743 450.884 358.727 450.447C353.556 448.226 348.36 446.07 343.149 443.945C341 443 341 443 340 442C339.84 439.045 339.74 436.11 339.684 433.152C339.663 432.266 339.642 431.379 339.621 430.466C339.555 427.623 339.496 424.78 339.438 421.938C339.394 420.015 339.351 418.092 339.307 416.17C339.199 411.447 339.098 406.723 339 402C340.584 402.469 342.167 402.939 343.75 403.41C344.632 403.672 345.513 403.934 346.422 404.203C350.697 405.524 354.858 407.098 358.98 408.834C367.15 412.238 375.57 414.831 384 417.5C401.359 422.996 401.359 422.996 408.897 426.128C410.888 426.954 412.89 427.718 414.914 428.457C424.451 431.94 433.741 435.838 443 440C442.602 438.42 442.602 438.42 442.195 436.809C441.838 435.352 441.481 433.895 441.125 432.438C440.951 431.752 440.777 431.067 440.598 430.361C437.142 416.092 436.732 402.147 436.875 387.562C436.885 385.752 436.894 383.941 436.902 382.131C436.924 377.754 436.958 373.377 437 369C436.281 368.88 435.562 368.76 434.822 368.637C431.935 367.985 429.542 367.038 426.852 365.812C425.857 365.365 424.862 364.918 423.836 364.457C422.247 363.736 422.247 363.736 420.625 363C407.645 357.193 394.502 351.501 381 347C379.628 345.292 379.628 345.292 378.207 343.047C377.667 342.21 377.128 341.374 376.572 340.512C375.991 339.601 375.411 338.689 374.812 337.75C366.408 324.845 357.12 312.691 347.543 300.641C347.024 299.987 346.506 299.333 345.971 298.66C345.019 297.464 344.061 296.272 343.097 295.084C340 291.217 340 291.217 340 289C341.738 287.695 341.738 287.695 344.312 286.125C345.326 285.501 346.339 284.877 347.383 284.234C347.958 283.882 348.533 283.529 349.126 283.166C351.141 281.913 353.129 280.624 355.117 279.328C374.294 266.893 394.632 255.218 416 247C417.574 246.36 419.147 245.717 420.719 245.07C460.679 228.76 460.679 228.76 474 229Z" fill="#323130"/>
<path d="M558 217C558.66 217 559.32 217 560 217C565.337 225.133 564.531 233.806 564.491 243.164C564.385 254.681 564.385 254.681 569 265C573.861 268.704 579.127 268.679 585 268C586.659 267.545 588.306 267.045 589.937 266.5C598.163 263.81 605.751 264.09 613.652 267.684C624.364 273.69 629.417 283.303 633.141 294.652C635.875 305.303 636.357 315.563 636.312 326.5C636.312 327.313 636.312 328.126 636.312 328.964C636.296 340.618 635.585 351.981 634.079 363.548C633.119 371.116 632.697 378.559 632.687 386.188C632.682 387.162 632.677 388.136 632.672 389.14C632.757 397.759 634.249 405.654 639 413C642.91 416.714 646.778 419.27 652.25 419.438C657.371 419.294 661.407 417.693 665 414C668.713 408.426 669.681 403.423 669.562 396.812C669.554 395.952 669.546 395.091 669.538 394.204C669.235 384.125 666.672 374.668 664 365C661.7 356.406 659.678 347.847 658.25 339.062C658.122 338.293 657.994 337.524 657.863 336.732C657.049 331.438 656.811 326.358 657 321C657.33 320.67 657.66 320.34 658 320C658.021 318.042 657.99 316.083 657.937 314.125C657.874 299.496 661.266 285.721 671.73 275.031C676.39 270.861 680.654 268.619 687 268C686.101 273.362 684.142 278.253 682.254 283.332C679.8 290.509 678.657 296.839 678.687 304.438C678.671 305.232 678.655 306.027 678.639 306.846C678.634 312.741 679.843 317.537 682 323C682.437 324.138 682.874 325.276 683.324 326.449C686.484 333.956 690.065 340.875 694.266 347.844C698.282 355.153 698.803 362.6 699.592 370.77C700.531 378.776 702.694 384.138 708.851 389.469C715.124 392.519 722.865 392.073 729.543 390.34C731.61 389.416 733.227 388.404 735 387C735.539 386.584 736.078 386.167 736.633 385.738C743.832 378.847 745.523 366.52 747.437 357.125C749.268 348.791 753.34 341.464 760 336C764.172 333.682 769.243 332.893 774 333C774.99 333.66 775.98 334.32 777 335C777.704 339.367 777.47 343.833 777.437 348.25C777.436 348.907 777.435 349.564 777.434 350.241C777.385 365.347 775.401 380.107 773 395C772.67 395 772.34 395 772 395C771.897 394.072 771.794 393.144 771.687 392.188C770.936 388.705 770.429 388.336 768 386C767.526 384.804 767.051 383.607 766.562 382.375C765.403 378.884 765.403 378.884 762.812 378.062C762.214 378.042 761.616 378.021 761 378C760.67 379.32 760.34 380.64 760 382C759.67 379.36 759.34 376.72 759 374C756.065 383.89 753.548 393.821 751.25 403.875C750.931 405.257 750.612 406.638 750.293 408.02C749.525 411.345 748.761 414.672 748 418C746.929 418.133 745.857 418.266 744.754 418.402C743.357 418.581 741.96 418.759 740.562 418.938C739.855 419.025 739.148 419.112 738.42 419.201C734.912 419.382 734.912 419.382 732 421C729.941 421.248 727.882 421.383 725.812 421.523C723.291 421.951 721.157 422.582 718.75 423.414C715.001 424.709 711.292 425.659 707.416 426.483C692.396 429.696 677.985 434.838 663.491 439.843C660.013 440.996 656.53 442.019 653 443C653 438.71 653 434.42 653 430C651.577 430.155 651.577 430.155 650.125 430.312C643.771 430.261 638.449 427.096 633.723 423.051C624.337 413.316 622.805 401.646 622.812 388.688C622.812 387.569 622.811 386.451 622.81 385.299C622.855 378.1 623.274 371.033 624 363.875C624.988 353.743 625.251 343.648 625.299 333.475C625.308 331.767 625.321 330.059 625.34 328.352C625.495 312.859 624.822 296.054 614.043 283.77C608.331 278.473 603.143 276.642 595.41 276.797C592.928 277.006 590.617 277.454 588.187 278C580.21 279.712 571.934 280.573 564.68 276.254C558.928 271.96 556.661 266.737 555 260C554.651 256.859 554.666 253.782 554.75 250.625C554.762 249.772 554.775 248.92 554.787 248.041C554.836 245.36 554.914 242.68 555 240C555.026 239.106 555.052 238.213 555.079 237.292C555.162 234.694 555.263 232.097 555.375 229.5C555.406 228.705 555.436 227.911 555.468 227.092C555.667 223.305 555.891 220.224 558 217Z" fill="#5A5A58"/>
<path d="M785 454C789.096 456.66 792.419 459.822 793.7 464.626C793.939 467.695 793.926 470.67 793.824 473.746C793.82 475.461 793.82 475.461 793.815 477.211C793.808 479.672 793.783 482.133 793.744 484.594C793.648 491.133 793.693 497.671 793.742 504.211C793.746 504.874 793.75 505.537 793.754 506.22C793.848 519.755 794.836 533.114 796.313 546.563C796.481 548.096 796.481 548.096 796.652 549.66C798.311 564.515 800.261 579.303 803 594C803.407 596.247 803.813 598.495 804.219 600.742C805.255 606.44 806.323 612.13 807.402 617.82C807.969 620.837 808.521 623.857 809.066 626.879C810.422 634.321 811.791 641.674 813.938 648.938C814.63 651.29 815.317 653.645 816 656C816.251 656.864 816.501 657.727 816.759 658.617C817.588 661.548 818.36 664.49 819.125 667.438C819.398 668.374 819.671 669.31 819.953 670.275C821.591 676.83 821.591 676.83 819.974 680.031C818.432 681.877 816.819 683.428 815 685C814.08 685.892 813.159 686.784 812.211 687.703C811.275 688.544 810.339 689.384 809.375 690.25C808.321 691.2 807.268 692.151 806.215 693.102C805.682 693.58 805.15 694.059 804.601 694.552C803.036 695.968 801.486 697.398 799.941 698.836C794.39 703.998 788.729 708.964 782.82 713.719C780.756 715.389 778.711 717.072 776.68 718.781C776.129 719.245 775.578 719.708 775.01 720.185C773.451 721.499 771.893 722.814 770.336 724.129C768 726 768 726 767 726C763.887 703.313 763.887 703.313 767.085 696.785C770.079 693.199 773.958 690.859 777.895 688.418C781.797 685.79 785.083 682.529 788.438 679.25C789.44 678.346 789.44 678.346 790.463 677.423C792.259 675.688 793.712 674.14 795 672C795.045 668.766 794.866 666.981 794 664C793.746 662.98 793.746 662.98 793.488 661.938C792.932 659.777 792.317 657.641 791.688 655.5C791.231 653.905 790.777 652.31 790.324 650.715C790.099 649.922 789.874 649.129 789.642 648.312C788.518 644.263 787.517 640.185 786.522 636.103C785.651 632.545 784.734 629.008 783.746 625.48C780.568 614.068 778.402 602.763 777 591C776.896 590.135 776.791 589.271 776.684 588.38C774.26 567.538 774.591 547.103 776.5 526.25C777.015 520.501 777.516 514.751 778 509C778.095 507.884 778.189 506.767 778.287 505.617C779.296 492.25 777.554 484.429 769 474C767.071 470.142 767.732 466.013 769 462C773.396 456.73 777.974 451.95 785 454Z" fill="#737270"/>
<path d="M289 460C297.229 461.987 305.222 464.579 313.25 467.25C314.036 467.512 314.823 467.773 315.633 468.043C362.501 483.7 408.854 502.845 452.453 526.117C454.951 527.449 457.457 528.755 460 530C460 530.33 460 530.66 460 531C448.721 532.563 437.497 533.566 426.125 534.125C424.893 534.187 424.893 534.187 423.637 534.249C410.857 534.872 398.075 535.256 385.28 535.352C383.497 535.367 381.714 535.388 379.93 535.417C361.175 535.687 343.83 533.022 329.598 519.765C323.222 513.507 318.113 506.294 313 499C312.201 497.869 312.201 497.869 311.386 496.716C305.216 487.959 299.303 479.06 293.688 469.938C292.976 468.785 292.976 468.785 292.25 467.61C289 462.25 289 462.25 289 460Z" fill="url(#paint2_linear_8_2)"/>
<path d="M728 470C717.975 486.332 707.398 502.348 695 517C694.273 517.861 693.546 518.722 692.797 519.609C682.507 531.439 672.597 537.096 657 539C652.764 539.255 648.544 539.281 644.301 539.266C643.118 539.268 641.936 539.271 640.717 539.274C636.916 539.278 633.114 539.265 629.312 539.25C628.02 539.248 626.728 539.246 625.397 539.244C577.836 539.152 577.836 539.152 560 536C588.948 503.836 659.438 489.109 700 476C701.106 475.641 702.213 475.282 703.353 474.912C706.046 474.039 708.741 473.173 711.438 472.312C712.164 472.081 712.89 471.849 713.638 471.61C723.12 468.638 723.12 468.638 728 470Z" fill="url(#paint3_linear_8_2)"/>
<path d="M262 501C268.502 507.451 273.979 514.336 279 522C291.294 540.729 306.254 552.907 326 563C325.67 571.25 325.34 579.5 325 588C320.256 586.814 316.88 584.731 312.75 582.188C311.559 581.456 311.559 581.456 310.344 580.709C302.189 575.619 294.544 569.948 287 564C286.186 563.361 286.186 563.361 285.355 562.709C280.239 558.679 275.155 554.605 270.744 549.796C269.067 547.977 269.067 547.977 267.167 546.617C263.462 543.436 261.854 540.532 261.435 535.697C261.223 530.46 261.389 525.236 261.563 520C261.598 518.158 261.63 516.315 261.658 514.473C261.735 509.98 261.856 505.491 262 501Z" fill="#6F6F6C"/>
<path d="M703.125 744.5C704.487 745.59 705.817 746.721 707.125 747.875C710.454 750.336 713.739 751.632 717.598 753.07C719.815 753.929 721.883 754.922 724 756C670.505 792.211 670.505 792.211 650 802C647.401 795.74 645.976 789.701 645 783C644.794 781.886 644.588 780.772 644.375 779.625C645 777 645 777 648.254 774.789C649.829 773.848 651.412 772.92 653 772C653.942 771.451 654.883 770.902 655.854 770.336C659.084 768.464 662.323 766.606 665.562 764.75C674.076 759.861 682.557 754.928 690.949 749.832C691.956 749.227 692.963 748.623 694 748C694.617 747.623 695.234 747.247 695.869 746.859C700.759 743.943 700.759 743.943 703.125 744.5Z" fill="#787876"/>
<path d="M424 169C422.814 172.375 421.724 174.647 419 177C419.66 175.02 420.32 173.04 421 171C420.241 171.228 419.481 171.456 418.699 171.691C417.705 171.979 416.711 172.266 415.688 172.562C414.701 172.853 413.715 173.143 412.699 173.441C410 174 410 174 407 173C412.638 170.725 417.826 169 424 169Z" fill="#838281"/>
<path d="M664 352C666.19 355.285 666.998 358.207 668 362C667.34 362.66 666.68 363.32 666 364C665.01 363.34 664.02 362.68 663 362C663.33 358.7 663.66 355.4 664 352Z" fill="#10140F"/>
<path d="M399 176C398.01 177.485 398.01 177.485 397 179C394.398 179.512 394.398 179.512 391.375 179.687C389.871 179.786 389.871 179.786 388.336 179.887C387.18 179.943 387.18 179.943 386 180C389.847 176.153 393.708 175.754 399 176Z" fill="#898B87"/>
<path d="M752 328C752.66 328.33 753.32 328.66 754 329C752.02 330.98 750.04 332.96 748 335C747.34 334.67 746.68 334.34 746 334C749.75 329.125 749.75 329.125 752 328Z" fill="#1C220D"/>
<path d="M351.179 574.292L348 573L326 563.5C326.78 563.923 324.243 588.59 325 589C324.979 597.924 324.962 606.848 324.951 615.771L324.95 616.836C324.946 621.033 324.941 625.229 324.932 629.426C324.92 633.883 324.911 638.34 324.907 642.796C324.906 644.493 324.904 646.19 324.903 647.887C324.895 650.327 324.887 652.767 324.886 655.207L324.887 657.456C324.864 661.742 324.916 665.823 326 670C328.018 674.247 330.797 677.785 335 680C339.485 680.917 342.848 680.626 346.875 678.438C351.317 673.342 352.344 668.598 352.237 662.034C352.179 660.262 352.138 658.488 352.111 656.715C352.068 653.851 352.006 650.988 351.938 648.125C351.864 645.269 351.796 642.413 351.754 639.556L351.715 636.82C351.627 634.328 351.59 631.869 351.674 629.377C352.436 623.826 354.68 619.231 358.75 615.438C362.946 613.582 365.434 613.632 370 614C373.36 614.454 374.889 615.338 377 618C378.77 622.326 380.569 624.661 384.25 627.438C393.923 634.589 398.662 640.639 400.686 652.703L401.188 655.875C401.691 658.911 402.193 661.946 402.681 664.984L403 667H405C405.019 665.083 405.037 663.167 405.049 661.25C405.054 660.442 404.496 659.784 404.5 659C404.509 658.216 404.492 657.261 404.5 656.5C404.503 655.73 404.497 655.248 404.5 654.5C404.511 653.065 404.573 651.433 404.5 650C403.986 647.068 404.014 644.199 403.804 641.228L403.703 638.362L403.582 635.087L403.465 631.602C403.331 627.893 403.198 624.185 403.07 620.476C402.982 617.898 402.891 615.32 402.8 612.742C402.552 605.831 402.308 598.921 402.069 592.01L402 590L400.176 589.595L397.758 589.059C381.641 585.482 366.5 580.478 351.179 574.292Z" fill="url(#paint4_linear_8_2)"/>
<path d="M558 217C558.66 217 559.32 217 560 217C565.337 225.133 564.531 233.806 564.491 243.164C564.385 254.681 564.385 254.681 569 265C573.861 268.704 579.127 268.679 585 268C586.659 267.545 588.306 267.045 589.937 266.5C598.163 263.81 605.751 264.09 613.652 267.684C624.364 273.69 629.417 283.303 633.141 294.652C635.875 305.303 636.357 315.563 636.312 326.5C636.312 327.313 636.312 328.126 636.312 328.964C636.296 340.618 635.585 351.981 634.079 363.548C633.119 371.116 632.697 378.559 632.687 386.188C632.682 387.162 632.677 388.136 632.672 389.14C632.757 397.759 634.249 405.654 639 413C642.91 416.714 646.778 419.27 652.25 419.438C657.371 419.294 661.407 417.693 665 414C668.713 408.426 669.681 403.423 669.562 396.812C669.554 395.952 669.546 395.091 669.538 394.204C669.236 384.128 666.682 374.663 664 365C661.259 354.939 659.327 345.462 659 335C660.703 338.068 661.481 340.885 662.187 344.312C663.527 349.865 665.587 354.72 668.087 359.844C670.761 365.365 673.103 370.99 675.375 376.688C675.721 377.549 676.066 378.411 676.423 379.299C680.665 390.006 682.073 401.953 678.437 413.125C675.491 419.89 671.192 424.229 664.562 427.438C657.224 430.022 647.906 430.625 640.441 428.152C638.345 426.947 636.743 425.674 635 424C634.066 423.145 634.066 423.145 633.113 422.273C624.031 413.02 622.805 401.035 622.812 388.688C622.812 387.569 622.811 386.451 622.81 385.299C622.855 378.1 623.274 371.033 624 363.875C624.988 353.743 625.251 343.648 625.299 333.475C625.308 331.767 625.321 330.059 625.34 328.352C625.495 312.859 624.822 296.054 614.043 283.77C608.331 278.473 603.143 276.642 595.41 276.797C592.928 277.006 590.617 277.454 588.187 278C580.21 279.712 571.934 280.573 564.68 276.254C558.928 271.96 556.661 266.737 555 260C554.651 256.859 554.666 253.782 554.75 250.625C554.762 249.772 554.775 248.92 554.787 248.041C554.836 245.36 554.914 242.68 555 240C555.026 239.106 555.052 238.213 555.079 237.292C555.162 234.694 555.263 232.097 555.375 229.5C555.406 228.705 555.436 227.911 555.468 227.092C555.667 223.305 555.891 220.224 558 217Z" fill="#0C0D09"/>
<path d="M574 291C573.835 292.237 573.67 293.475 573.5 294.75C572.182 305.209 572.182 305.209 574.437 315.25C577.686 317.469 579.921 317.522 583.781 317.469C586.637 316.865 587.994 316.136 590 314C591.141 306.931 590.127 299.78 588 293C591.12 294.36 593.008 295.833 595.187 298.438C595.697 299.034 596.206 299.631 596.73 300.246C600.212 305.056 599.389 311.354 599 317C597.556 321.964 594.913 324.568 590.512 327.082C584.89 329.137 578.437 329.122 572.75 327.266C567.593 324.554 564.273 320.26 562 315C560.731 307.389 562.757 301.318 567 295C571.095 291 571.095 291 574 291Z" fill="#0D0C09"/>
<defs>
<linearGradient id="paint0_linear_8_2" x1="437" y1="89.7564" x2="1052.86" y2="991.903" gradientUnits="userSpaceOnUse">
<stop offset="0.274038" stop-color="#643A71"/>
<stop offset="0.634615" stop-color="#BE6ED7"/>
</linearGradient>
<linearGradient id="paint1_linear_8_2" x1="517.372" y1="507.13" x2="806.096" y2="1036" gradientUnits="userSpaceOnUse">
<stop offset="0.274038" stop-color="#643A71"/>
<stop offset="0.634615" stop-color="#BE6ED7"/>
</linearGradient>
<linearGradient id="paint2_linear_8_2" x1="374.89" y1="486.168" x2="367.962" y2="563.681" gradientUnits="userSpaceOnUse">
<stop stop-color="#643A71"/>
<stop offset="0.673077" stop-color="#BE6ED7"/>
</linearGradient>
<linearGradient id="paint3_linear_8_2" x1="644.383" y1="493.458" x2="638.279" y2="565.603" gradientUnits="userSpaceOnUse">
<stop stop-color="#643A71"/>
<stop offset="0.673077" stop-color="#BE6ED7"/>
</linearGradient>
<linearGradient id="paint4_linear_8_2" x1="344" y1="586" x2="433.5" y2="684" gradientUnits="userSpaceOnUse">
<stop offset="0.389423" stop-color="#643A71"/>
<stop offset="1" stop-color="#BE6ED7"/>
</linearGradient>
</defs>
</svg>
